<svg id="Capa_1" data-name="Capa 1" xmlns="http://www.w3.org/2000/svg" viewBox="0 0 2319.34 317.98"><defs><style>.cls-1{fill:#677b8c}.cls-2{fill:#5b93fc}</style></defs><path class="cls-1" d="M185.34 107.51v13.93a1.43 1.43 0 01-1.52 1.51H124v28.47h49.37a1.43 1.43 0 011.51 1.51v13.94a1.43 1.43 0 01-1.51 1.51H124v42.09a1.43 1.43 0 01-1.5 1.53h-15a1.44 1.44 0 01-1.52-1.52v-103a1.44 1.44 0 011.52-1.52h76.31a1.44 1.44 0 011.53 1.55zM307.38 212h-16.5a1.66 1.66 0 01-1.75-1.37c-2.19-8.7-4.84-17.86-7.87-27.1h-50.65c-3 9.24-5.68 18.4-7.8 27.1a1.65 1.65 0 01-1.74 1.37h-15.9c-1.06 0-1.66-.61-1.36-1.67 9.54-33.76 24.07-71 38.76-102.36a2.9 2.9 0 013-2H267a2.9 2.9 0 013 2 692.81 692.81 0 0138.76 102.36c.29 1.05-.32 1.67-1.38 1.67zm-31.72-44.82c-5.53-15.3-11.66-30.59-18-44.52h-3.55c-6.29 13.93-12.5 29.22-18 44.52zM334.48 159.9c0-32.9 21.65-55.9 52.52-55.9h2.27c19.39 0 34.38 9.84 42.33 24.07a1.34 1.34 0 01-.53 2.12l-13.33 6.59a1.85 1.85 0 01-2.65-.68c-5.6-9.69-14-14.84-26.42-14.84h-2.27c-19.46 0-32.86 15.44-32.86 37.85s13.17 37.55 32.86 37.55h2.27c12.72 0 20.14-4.31 25.82-10.9a1.93 1.93 0 012.5-.53l13.7 6.66a1.28 1.28 0 01.76 1.06 2 2 0 01-.46 1.14c-8.4 12.27-23.54 19.84-42 19.84h-2.27c-31.42.07-52.24-21.55-52.24-54.03zM552.22 196.54v13.93a1.44 1.44 0 01-1.51 1.52h-79.5a1.43 1.43 0 01-1.51-1.52v-103a1.43 1.43 0 011.51-1.52h78.13a1.44 1.44 0 011.52 1.52v13.93a1.43 1.43 0 01-1.52 1.51h-61.63v27.56h50.12a1.44 1.44 0 011.52 1.52v13.78a1.44 1.44 0 01-1.52 1.51h-50.12V195h63a1.43 1.43 0 011.51 1.54zM689.1 182.92c0 18.54-14.23 29.07-39.37 29.07h-52.09a1.43 1.43 0 01-1.51-1.52v-103a1.43 1.43 0 011.51-1.52h47.47c24.46 0 37.78 9.69 37.78 27.41 0 11.66-5.9 19.31-17.87 22.86 16.81 3.6 24.08 13.67 24.08 26.7zm-44.37-60.42h-30.58V151h30.58c13.71 0 20-4.47 20-14.24s-6.29-14.26-20-14.26zm25.9 58.83c0-9.85-6.51-14.31-20.82-14.31h-35.66v28.46h35.66c14.53 0 20.82-4.24 20.82-14.15zM720.82 159c0-31.95 21.2-55 54.51-55h2.27c33.31 0 54.51 23 54.51 55s-21.2 55-54.51 55h-2.27c-33.33 0-54.51-23.06-54.51-55zm56.78 37.7c21.73 0 35.43-14.91 35.43-37.7s-13.7-37.7-35.43-37.7h-2.27c-21.73 0-35.43 14.91-35.43 37.7s13.7 37.7 35.43 37.7zM862.85 159c0-31.95 21.2-55 54.51-55h2.27c33.31 0 54.51 23 54.51 55s-21.2 55-54.51 55h-2.27c-33.31 0-54.51-23.06-54.51-55zm56.78 37.7c21.73 0 35.43-14.91 35.43-37.7s-13.7-37.7-35.43-37.7h-2.27c-21.73 0-35.43 14.91-35.43 37.7s13.7 37.7 35.43 37.7zM1104.74 212h-19.54a2.88 2.88 0 01-2.65-1.29 413.18 413.18 0 00-43.68-44h-8.78v43.76a1.44 1.44 0 01-1.52 1.52h-15a1.43 1.43 0 01-1.51-1.52v-103a1.43 1.43 0 011.51-1.52h15a1.44 1.44 0 011.52 1.52v41.83h8.91a325.26 325.26 0 0039.52-42.17 2.44 2.44 0 012.27-1.14h18.48c.9 0 1.36.46 1.36 1.06a1.85 1.85 0 01-.53 1.14 377.92 377.92 0 01-47.32 49.21 456.62 456.62 0 0152.77 52.69c.85.99.45 1.91-.81 1.91z"></path><path class="cls-2" d="M1209.67 211.93h-38.11V106.08h38.11q27 0 41.78 13.88t14.78 39.04q0 25.17-14.78 39.05t-41.78 13.88zm0-93h-23.29v80.15h23.29q19.66 0 30.55-10.59T1251.1 159q0-18.9-10.88-29.49t-30.55-10.58zM1360.74 211.93H1347l-.3-11.41a33 33 0 01-12 9.64 36.49 36.49 0 01-16.1 3.59 34.85 34.85 0 01-18.79-5.14 36.28 36.28 0 01-13-14.1 45.92 45.92 0 010-40.76 36.28 36.28 0 0113-14.1 34.85 34.85 0 0118.79-5.14 36.49 36.49 0 0116.1 3.59 33 33 0 0112 9.64l.3-11.41h13.76zm-39.17-10.73a23.95 23.95 0 0021.89-13 32.18 32.18 0 000-28.06 24.7 24.7 0 00-43.78 0 32.27 32.27 0 000 28.06 24 24 0 0021.89 13zM1428.64 199.23v12.1q-2.88.45-6 .76c-2.06.2-4.11.3-6.12.3q-13.92 0-20.19-7t-6.27-21.48v-35.34H1376v-12.24h14.07v-22.84h14.21v22.84h24.65l-1.82 12.24h-22.83v34.48q0 9.52 3.89 13.16t12.29 3.63a51.94 51.94 0 008.18-.61zM1519.06 211.93h-13.76l-.3-11.41a32.86 32.86 0 01-12 9.64 36.5 36.5 0 01-16.11 3.59 34.82 34.82 0 01-18.78-5.14 36.38 36.38 0 01-13-14.1 46 46 0 010-40.76 36.38 36.38 0 0113-14.1 34.82 34.82 0 0118.78-5.14 36.5 36.5 0 0116.11 3.59 32.86 32.86 0 0112 9.64l.3-11.41h13.76zm-39.16-10.73a24 24 0 0021.89-13 32.27 32.27 0 000-28.06 24.69 24.69 0 00-43.78 0 32.27 32.27 0 000 28.06 23.95 23.95 0 0021.89 13zM1601.93 211.93h-14.21v-63.36h-14.07v-12.24h14.07v-9.76q0-14.44 6.23-21.47t20.08-7q2.27 0 5.67.3a58.67 58.67 0 015.82.76v12.09c-1.21-.15-2.62-.29-4.23-.41s-2.88-.19-3.78-.19q-8.25 0-11.91 3.85t-3.67 12.93v8.93h23.14l-1.82 12.24h-21.32zM1673 213.75a41.17 41.17 0 01-20.71-5.07 36 36 0 01-13.92-14 44.89 44.89 0 010-41.14 36 36 0 0113.92-14 44.85 44.85 0 0141.43 0 36 36 0 0113.91 14 44.89 44.89 0 010 41.14 36 36 0 01-13.91 14 41.21 41.21 0 01-20.72 5.07zm0-12.55a23.95 23.95 0 0021.89-13 32.18 32.18 0 000-28.06 24.7 24.7 0 00-43.78 0 32.27 32.27 0 000 28.06 24 24 0 0021.89 13zM1746.8 211.93h-14.22v-75.6h13.76l.3 13.38a31 31 0 0111.42-10.51 32.09 32.09 0 0115.65-3.93c1.06 0 2.26.06 3.59.19s2.41.26 3.22.41v12.86a35.79 35.79 0 00-6.35-.46q-12.48 0-19.93 8.24t-7.44 22zM1924.63 201.35a47.2 47.2 0 01-12.4 7.14 79.41 79.41 0 01-14.78 4.28 80.66 80.66 0 01-14.71 1.43q-16.18 0-28.39-7a49.37 49.37 0 01-19-19.43q-6.85-12.43-6.85-28.77t6.85-28.77a49.37 49.37 0 0119-19.43q12.21-7 28.39-7a69.34 69.34 0 0121.28 3.41 63.08 63.08 0 0119.1 9.82l-6.73 10.82a54.8 54.8 0 00-16.37-8.09 58.82 58.82 0 00-17.28-2.8 37.46 37.46 0 00-20 5.44 38.93 38.93 0 00-14 14.94 44.68 44.68 0 00-5.15 21.66 44.53 44.53 0 005.18 21.66 38.42 38.42 0 0014.37 14.93 40.65 40.65 0 0021.13 5.45 61.23 61.23 0 0013.57-1.52 47.76 47.76 0 0012-4.31v-27.43h-28.58v-12.85h43.4zM1984.21 213.75a41.21 41.21 0 01-20.72-5.07 36 36 0 01-13.91-14 44.89 44.89 0 010-41.14 36 36 0 0113.91-14 44.85 44.85 0 0141.43 0 36 36 0 0113.92 14 44.89 44.89 0 010 41.14 36 36 0 01-13.92 14 41.17 41.17 0 01-20.71 5.07zm0-12.55a24 24 0 0021.89-13 32.27 32.27 0 000-28.06 24.69 24.69 0 00-43.78 0 32.18 32.18 0 000 28.06 23.95 23.95 0 0021.89 13zM2079.17 213.75a41.23 41.23 0 01-20.72-5.07 36.08 36.08 0 01-13.91-14 44.89 44.89 0 010-41.14 36.08 36.08 0 0113.91-14 44.87 44.87 0 0141.44 0 36.08 36.08 0 0113.91 14 44.89 44.89 0 010 41.14 36.08 36.08 0 01-13.91 14 41.23 41.23 0 01-20.72 5.07zm0-12.55a23.95 23.95 0 0021.89-13 32.27 32.27 0 000-28.06 24.7 24.7 0 00-43.78 0 32.27 32.27 0 000 28.06 24 24 0 0021.89 13zM2213.3 211.93h-13.76l-.3-11.41a33 33 0 01-12 9.64 36.46 36.46 0 01-16.1 3.59 34.85 34.85 0 01-18.79-5.14 36.28 36.28 0 01-13-14.1 45.92 45.92 0 010-40.76 36.28 36.28 0 0113-14.1 34.85 34.85 0 0118.79-5.14 36.31 36.31 0 0115.95 3.52 33.24 33.24 0 0112 9.49V99.28l14.21-1.52zm-39.17-10.73a23.95 23.95 0 0021.89-13 32.18 32.18 0 000-28.06 24.69 24.69 0 00-43.77 0 32.18 32.18 0 000 28.06 23.95 23.95 0 0021.88 13z"></path></svg>